<?xml version="1.0" encoding="UTF-8"?>
<svg xmlns="http://www.w3.org/2000/svg" xmlns:xlink="http://www.w3.org/1999/xlink" width="2100" height="2100" viewBox="0 0 2100 2100">
<defs>
<radialGradient id="radial-pattern-0" gradientUnits="userSpaceOnUse" cx="0" cy="0" fx="0" fy="0" r="1050" gradientTransform="matrix(1, 0, 0, 1, 1050, 1050)">
<stop offset="0" stop-color="rgb(100%, 100%, 100%)" stop-opacity="1"/>
<stop offset="0.125" stop-color="rgb(100%, 99.993896%, 99.884033%)" stop-opacity="1"/>
<stop offset="0.152344" stop-color="rgb(99.934387%, 99.961853%, 99.682617%)" stop-opacity="1"/>
<stop offset="0.164062" stop-color="rgb(99.739075%, 99.894714%, 99.591064%)" stop-opacity="1"/>
<stop offset="0.214844" stop-color="rgb(99.607849%, 99.850464%, 99.530029%)" stop-opacity="1"/>
<stop offset="0.226562" stop-color="rgb(99.595642%, 99.694824%, 99.269104%)" stop-opacity="1"/>
<stop offset="0.25" stop-color="rgb(99.487305%, 99.462891%, 99.034119%)" stop-opacity="1"/>
<stop offset="0.261719" stop-color="rgb(99.287415%, 99.349976%, 98.999023%)" stop-opacity="1"/>
<stop offset="0.28125" stop-color="rgb(99.186707%, 99.307251%, 98.809814%)" stop-opacity="1"/>
<stop offset="0.300781" stop-color="rgb(99.058533%, 99.256897%, 98.606873%)" stop-opacity="1"/>
<stop offset="0.34375" stop-color="rgb(98.86322%, 99.185181%, 98.413086%)" stop-opacity="1"/>
<stop offset="0.363281" stop-color="rgb(98.789978%, 99.081421%, 98.181152%)" stop-opacity="1"/>
<stop offset="0.371094" stop-color="rgb(98.774719%, 98.884583%, 98.071289%)" stop-opacity="1"/>
<stop offset="0.410156" stop-color="rgb(98.76709%, 98.764038%, 98.017883%)" stop-opacity="1"/>
<stop offset="0.425781" stop-color="rgb(98.609924%, 98.713684%, 98.008728%)" stop-opacity="1"/>
<stop offset="0.441406" stop-color="rgb(98.413086%, 98.643494%, 97.845459%)" stop-opacity="1"/>
<stop offset="0.457031" stop-color="rgb(98.374939%, 98.622131%, 97.648621%)" stop-opacity="1"/>
<stop offset="0.488281" stop-color="rgb(98.365784%, 98.477173%, 97.544861%)" stop-opacity="1"/>
<stop offset="0.503906" stop-color="rgb(98.352051%, 98.28186%, 97.457886%)" stop-opacity="1"/>
<stop offset="0.53125" stop-color="rgb(98.347473%, 98.22998%, 97.396851%)" stop-opacity="1"/>
<stop offset="0.542969" stop-color="rgb(98.347473%, 98.220825%, 97.203064%)" stop-opacity="1"/>
<stop offset="0.570312" stop-color="rgb(98.217773%, 98.171997%, 97.042847%)" stop-opacity="1"/>
<stop offset="0.582031" stop-color="rgb(98.022461%, 98.109436%, 97.0047%)" stop-opacity="1"/>
<stop offset="0.605469" stop-color="rgb(97.955322%, 98.059082%, 96.781921%)" stop-opacity="1"/>
<stop offset="0.652344" stop-color="rgb(97.941589%, 97.848511%, 96.336365%)" stop-opacity="1"/>
<stop offset="0.695312" stop-color="rgb(97.929382%, 97.665405%, 96.086121%)" stop-opacity="1"/>
<stop offset="0.710938" stop-color="rgb(97.929382%, 97.657776%, 95.93811%)" stop-opacity="1"/>
<stop offset="0.726562" stop-color="rgb(97.782898%, 97.602844%, 95.73822%)" stop-opacity="1"/>
<stop offset="0.742188" stop-color="rgb(97.587585%, 97.538757%, 95.684814%)" stop-opacity="1"/>
<stop offset="0.773438" stop-color="rgb(97.538757%, 97.518921%, 95.593262%)" stop-opacity="1"/>
<stop offset="0.785156" stop-color="rgb(97.538757%, 97.509766%, 95.399475%)" stop-opacity="1"/>
<stop offset="0.808594" stop-color="rgb(97.398376%, 97.332764%, 95.233154%)" stop-opacity="1"/>
<stop offset="0.820312" stop-color="rgb(97.190857%, 97.076416%, 95.068359%)" stop-opacity="1"/>
<stop offset="0.863281" stop-color="rgb(97.053528%, 96.963501%, 94.842529%)" stop-opacity="1"/>
<stop offset="0.894531" stop-color="rgb(96.858215%, 96.896362%, 94.715881%)" stop-opacity="1"/>
<stop offset="0.917969" stop-color="rgb(96.731567%, 96.855164%, 94.648743%)" stop-opacity="1"/>
<stop offset="0.925781" stop-color="rgb(96.725464%, 96.742249%, 94.412231%)" stop-opacity="1"/>
<stop offset="0.960938" stop-color="rgb(96.563721%, 96.492004%, 94.047546%)" stop-opacity="1"/>
<stop offset="0.980469" stop-color="rgb(96.362305%, 96.333313%, 93.809509%)" stop-opacity="1"/>
<stop offset="1" stop-color="rgb(96.316528%, 96.316528%, 93.763733%)" stop-opacity="1"/>
</radialGradient>
</defs>
<rect x="-210" y="-210" width="2520" height="2520" fill="url(#radial-pattern-0)"/>
<path fill-rule="nonzero" fill="rgb(22.541809%, 22.180176%, 22.56012%)" fill-opacity="1" d="M 1503 1380.921875 L 1307.421875 1380.921875 C 1303.871094 1380.921875 1301 1378.050781 1301 1374.5 C 1301 1370.960938 1303.871094 1368.078125 1307.421875 1368.078125 L 1476.460938 1368.078125 L 1432.761719 1312.890625 L 1476.519531 1257.238281 L 1367.929688 1257.238281 C 1364.378906 1257.238281 1361.511719 1254.371094 1361.511719 1250.820312 C 1361.511719 1247.28125 1364.378906 1244.398438 1367.929688 1244.398438 L 1502.941406 1244.398438 L 1449.121094 1312.859375 L 1503 1380.921875 "/>
<path fill-rule="nonzero" fill="rgb(22.541809%, 22.180176%, 22.56012%)" fill-opacity="1" d="M 792.582031 1380.921875 L 597 1380.921875 L 650.878906 1312.859375 L 597.058594 1244.398438 L 732.070312 1244.398438 C 735.617188 1244.398438 738.488281 1247.28125 738.488281 1250.820312 C 738.488281 1254.371094 735.617188 1257.238281 732.070312 1257.238281 L 623.480469 1257.238281 L 667.234375 1312.890625 L 623.539062 1368.078125 L 792.582031 1368.078125 C 796.125 1368.078125 799 1370.960938 799 1374.5 C 799 1378.050781 796.125 1380.921875 792.582031 1380.921875 "/>
<path fill-rule="nonzero" fill="rgb(22.541809%, 22.180176%, 22.56012%)" fill-opacity="1" d="M 818.96875 1242.738281 L 824.800781 1200.679688 L 825.046875 1200.679688 L 831 1242.738281 Z M 816.414062 1185.851562 L 802.558594 1270.941406 L 814.957031 1270.941406 L 817.386719 1254.289062 L 832.582031 1254.289062 L 832.582031 1254.039062 L 835.011719 1270.941406 L 848.382812 1270.941406 L 834.527344 1185.851562 L 816.414062 1185.851562 "/>
<path fill-rule="nonzero" fill="rgb(22.541809%, 22.180176%, 22.56012%)" fill-opacity="1" d="M 891.53125 1250.519531 C 891.53125 1253.441406 890.941406 1255.539062 889.769531 1256.839844 C 888.59375 1258.140625 886.910156 1258.78125 884.722656 1258.78125 L 877.917969 1258.78125 L 877.917969 1198.011719 L 884.722656 1198.011719 C 886.910156 1198.011719 888.59375 1198.660156 889.769531 1199.949219 C 890.941406 1201.25 891.53125 1203.359375 891.53125 1206.269531 Z M 884.96875 1185.851562 L 864.546875 1185.851562 L 864.546875 1270.941406 L 884.96875 1270.941406 C 891.609375 1270.941406 896.59375 1269.160156 899.917969 1265.589844 C 903.238281 1262.03125 904.902344 1256.800781 904.902344 1249.910156 L 904.902344 1206.878906 C 904.902344 1200 903.238281 1194.769531 899.917969 1191.199219 C 896.59375 1187.640625 891.609375 1185.851562 884.96875 1185.851562 "/>
<path fill-rule="nonzero" fill="rgb(22.541809%, 22.180176%, 22.56012%)" fill-opacity="1" d="M 942.335938 1251.859375 L 942.09375 1251.859375 L 933.34375 1185.851562 L 919.851562 1185.851562 L 932.734375 1270.941406 L 950.480469 1270.941406 L 963.363281 1185.851562 L 951.089844 1185.851562 L 942.335938 1251.859375 "/>
<path fill-rule="nonzero" fill="rgb(22.541809%, 22.180176%, 22.56012%)" fill-opacity="1" d="M 979.527344 1270.941406 L 1015.988281 1270.941406 L 1015.988281 1258.78125 L 992.898438 1258.78125 L 992.898438 1232.648438 L 1011.25 1232.648438 L 1011.25 1220.5 L 992.898438 1220.5 L 992.898438 1198.011719 L 1015.988281 1198.011719 L 1015.988281 1185.851562 L 979.527344 1185.851562 L 979.527344 1270.941406 "/>
<path fill-rule="nonzero" fill="rgb(22.541809%, 22.180176%, 22.56012%)" fill-opacity="1" d="M 1063.398438 1236.78125 L 1063.148438 1236.78125 L 1050.148438 1185.851562 L 1033.371094 1185.851562 L 1033.371094 1270.941406 L 1045.289062 1270.941406 L 1045.289062 1208.828125 L 1045.53125 1208.828125 L 1061.570312 1270.941406 L 1075.308594 1270.941406 L 1075.308594 1185.851562 L 1063.398438 1185.851562 L 1063.398438 1236.78125 "/>
<path fill-rule="nonzero" fill="rgb(22.541809%, 22.180176%, 22.56012%)" fill-opacity="1" d="M 1091.46875 1198.011719 L 1105.449219 1198.011719 L 1105.449219 1270.941406 L 1118.820312 1270.941406 L 1118.820312 1198.011719 L 1132.800781 1198.011719 L 1132.800781 1185.851562 L 1091.46875 1185.851562 L 1091.46875 1198.011719 "/>
<path fill-rule="nonzero" fill="rgb(22.541809%, 22.180176%, 22.56012%)" fill-opacity="1" d="M 1175.460938 1251.730469 C 1175.460938 1254.648438 1174.878906 1256.761719 1173.699219 1258.050781 C 1172.53125 1259.351562 1170.851562 1260 1168.660156 1260 C 1166.46875 1260 1164.789062 1259.351562 1163.609375 1258.050781 C 1162.441406 1256.761719 1161.851562 1254.648438 1161.851562 1251.730469 L 1161.851562 1185.851562 L 1148.480469 1185.851562 L 1148.480469 1250.761719 C 1148.480469 1257.648438 1150.179688 1262.941406 1153.589844 1266.621094 C 1156.988281 1270.308594 1161.929688 1272.148438 1168.410156 1272.148438 C 1174.898438 1272.148438 1179.839844 1270.308594 1183.238281 1266.621094 C 1186.648438 1262.941406 1188.351562 1257.648438 1188.351562 1250.761719 L 1188.351562 1185.851562 L 1175.460938 1185.851562 L 1175.460938 1251.730469 "/>
<path fill-rule="nonzero" fill="rgb(22.541809%, 22.180176%, 22.56012%)" fill-opacity="1" d="M 1233.808594 1213.320312 C 1233.808594 1216.570312 1233.140625 1218.878906 1231.800781 1220.25 C 1230.460938 1221.628906 1228.460938 1222.320312 1225.78125 1222.320312 L 1220.921875 1222.320312 L 1220.921875 1198.011719 L 1227 1198.011719 C 1229.351562 1198.011719 1231.070312 1198.699219 1232.160156 1200.078125 C 1233.261719 1201.449219 1233.808594 1203.679688 1233.808594 1206.761719 Z M 1247.300781 1260.609375 L 1247.300781 1245.660156 C 1247.300781 1240.628906 1246.628906 1236.621094 1245.289062 1233.621094 C 1243.960938 1230.628906 1241.660156 1228.640625 1238.421875 1227.671875 L 1238.421875 1227.421875 C 1244.261719 1225.070312 1247.179688 1219.480469 1247.179688 1210.648438 L 1247.179688 1205.421875 C 1247.179688 1198.78125 1245.601562 1193.859375 1242.441406 1190.660156 C 1239.269531 1187.460938 1234.25 1185.851562 1227.359375 1185.851562 L 1207.550781 1185.851562 L 1207.550781 1270.941406 L 1220.921875 1270.941406 L 1220.921875 1234.46875 L 1225.539062 1234.46875 C 1228.621094 1234.46875 1230.789062 1235.25 1232.039062 1236.78125 C 1233.300781 1238.320312 1233.929688 1241.039062 1233.929688 1244.929688 L 1233.929688 1260.488281 C 1233.929688 1263.648438 1234.011719 1265.828125 1234.171875 1267.050781 C 1234.328125 1268.261719 1234.660156 1269.558594 1235.140625 1270.941406 L 1248.761719 1270.941406 C 1248.109375 1269.480469 1247.699219 1268 1247.539062 1266.5 C 1247.378906 1265 1247.300781 1263.039062 1247.300781 1260.609375 "/>
<path fill-rule="nonzero" fill="rgb(22.541809%, 22.180176%, 22.56012%)" fill-opacity="1" d="M 1302.71875 1198.011719 L 1302.71875 1185.851562 L 1266.261719 1185.851562 L 1266.261719 1270.941406 L 1302.71875 1270.941406 L 1302.71875 1258.78125 L 1279.628906 1258.78125 L 1279.628906 1232.648438 L 1297.980469 1232.648438 L 1297.980469 1220.5 L 1279.628906 1220.5 L 1279.628906 1198.011719 L 1302.71875 1198.011719 "/>
<path fill-rule="nonzero" fill="rgb(22.541809%, 22.180176%, 22.56012%)" fill-opacity="1" d="M 928.53125 1143.410156 L 941.371094 1143.410156 L 941.371094 1149.820312 L 928.53125 1149.820312 L 928.53125 1143.410156 "/>
<path fill-rule="nonzero" fill="rgb(22.541809%, 22.180176%, 22.56012%)" fill-opacity="1" d="M 1171.191406 1143.410156 L 1171.191406 1149.820312 L 1158.351562 1149.820312 L 1158.351562 1143.410156 L 1171.191406 1143.410156 "/>
<path fill-rule="nonzero" fill="rgb(22.541809%, 22.180176%, 22.56012%)" fill-opacity="1" d="M 1143.101562 957.410156 L 956.628906 957.410156 C 941.140625 957.410156 928.535156 970.011719 928.535156 985.5 L 928.535156 1149.820312 L 941.375 1149.820312 L 941.375 985.5 C 941.375 977.089844 948.21875 970.25 956.628906 970.25 L 968.253906 970.25 L 968.253906 1015.441406 C 968.253906 1018.988281 971.128906 1021.859375 974.671875 1021.859375 C 978.21875 1021.859375 981.09375 1018.988281 981.09375 1015.441406 L 981.09375 970.25 L 1005.851562 970.25 L 1005.851562 989.640625 C 1005.851562 993.179688 1008.71875 996.058594 1012.269531 996.058594 C 1015.808594 996.058594 1018.691406 993.179688 1018.691406 989.640625 L 1018.691406 970.25 L 1043.441406 970.25 L 1043.441406 1043.691406 C 1043.441406 1047.230469 1046.320312 1050.109375 1049.859375 1050.109375 C 1053.410156 1050.109375 1056.28125 1047.230469 1056.28125 1043.691406 L 1056.28125 970.25 L 1081.039062 970.25 L 1081.039062 996.078125 C 1081.039062 999.621094 1083.910156 1002.5 1087.460938 1002.5 C 1091 1002.5 1093.878906 999.621094 1093.878906 996.078125 L 1093.878906 970.25 L 1118.628906 970.25 L 1118.628906 1038.980469 C 1118.628906 1042.53125 1121.511719 1045.398438 1125.050781 1045.398438 C 1128.601562 1045.398438 1131.46875 1042.53125 1131.46875 1038.980469 L 1131.46875 970.25 L 1143.101562 970.25 C 1151.511719 970.25 1158.351562 977.089844 1158.351562 985.5 L 1158.351562 1149.820312 L 1171.191406 1149.820312 L 1171.191406 985.5 C 1171.191406 970.011719 1158.589844 957.410156 1143.101562 957.410156 "/>
<path fill-rule="nonzero" fill="rgb(22.541809%, 22.180176%, 22.56012%)" fill-opacity="1" d="M 974.671875 1086.488281 C 971.128906 1086.488281 968.253906 1089.359375 968.253906 1092.910156 L 968.253906 1149.820312 C 968.253906 1153.371094 971.128906 1156.238281 974.671875 1156.238281 C 978.21875 1156.238281 981.09375 1153.371094 981.09375 1149.820312 L 981.09375 1092.910156 C 981.09375 1089.359375 978.21875 1086.488281 974.671875 1086.488281 "/>
<path fill-rule="nonzero" fill="rgb(22.541809%, 22.180176%, 22.56012%)" fill-opacity="1" d="M 1012.269531 1007.308594 C 1008.71875 1007.308594 1005.851562 1010.191406 1005.851562 1013.730469 L 1005.851562 1103.601562 C 1005.851562 1107.148438 1008.71875 1110.019531 1012.269531 1110.019531 C 1015.808594 1110.019531 1018.691406 1107.148438 1018.691406 1103.601562 L 1018.691406 1013.730469 C 1018.691406 1010.191406 1015.808594 1007.308594 1012.269531 1007.308594 "/>
<path fill-rule="nonzero" fill="rgb(22.541809%, 22.180176%, 22.56012%)" fill-opacity="1" d="M 1049.859375 1082.210938 C 1046.320312 1082.210938 1043.441406 1085.078125 1043.441406 1088.628906 L 1043.441406 1111.308594 C 1043.441406 1114.851562 1046.320312 1117.730469 1049.859375 1117.730469 C 1053.410156 1117.730469 1056.28125 1114.851562 1056.28125 1111.308594 L 1056.28125 1088.628906 C 1056.28125 1085.078125 1053.410156 1082.210938 1049.859375 1082.210938 "/>
<path fill-rule="nonzero" fill="rgb(22.541809%, 22.180176%, 22.56012%)" fill-opacity="1" d="M 1087.460938 1015.660156 C 1083.910156 1015.660156 1081.039062 1018.53125 1081.039062 1022.078125 L 1081.039062 1082.101562 C 1081.039062 1085.648438 1083.910156 1088.519531 1087.460938 1088.519531 C 1091 1088.519531 1093.878906 1085.648438 1093.878906 1082.101562 L 1093.878906 1022.078125 C 1093.878906 1018.53125 1091 1015.660156 1087.460938 1015.660156 "/>
<path fill-rule="nonzero" fill="rgb(22.541809%, 22.180176%, 22.56012%)" fill-opacity="1" d="M 1125.050781 1061.238281 C 1121.511719 1061.238281 1118.628906 1064.109375 1118.628906 1067.660156 L 1118.628906 1128.800781 C 1118.628906 1132.351562 1121.511719 1135.21875 1125.050781 1135.21875 C 1128.601562 1135.21875 1131.46875 1132.351562 1131.46875 1128.800781 L 1131.46875 1067.660156 C 1131.46875 1064.109375 1128.601562 1061.238281 1125.050781 1061.238281 "/>
<path fill-rule="nonzero" fill="rgb(22.541809%, 22.180176%, 22.56012%)" fill-opacity="1" d="M 928.535156 1457.378906 L 941.375 1457.378906 L 941.375 1302.609375 L 928.535156 1302.609375 L 928.535156 1457.378906 "/>
<path fill-rule="nonzero" fill="rgb(22.541809%, 22.180176%, 22.56012%)" fill-opacity="1" d="M 1158.351562 1302.609375 L 1158.351562 1457.378906 L 1171.191406 1457.378906 L 1171.191406 1302.609375 L 1158.351562 1302.609375 "/>
<path fill-rule="nonzero" fill="rgb(22.541809%, 22.180176%, 22.56012%)" fill-opacity="1" d="M 1125.050781 1425.261719 C 1121.511719 1425.261719 1118.628906 1428.140625 1118.628906 1431.679688 L 1118.628906 1480.851562 C 1118.628906 1484.398438 1121.511719 1487.269531 1125.050781 1487.269531 C 1128.601562 1487.269531 1131.46875 1484.398438 1131.46875 1480.851562 L 1131.46875 1431.679688 C 1131.46875 1428.140625 1128.601562 1425.261719 1125.050781 1425.261719 "/>
<path fill-rule="nonzero" fill="rgb(22.541809%, 22.180176%, 22.56012%)" fill-opacity="1" d="M 1125.050781 1376.050781 C 1121.511719 1376.050781 1118.628906 1378.921875 1118.628906 1382.46875 L 1118.628906 1406.429688 C 1118.628906 1409.980469 1121.511719 1412.851562 1125.050781 1412.851562 C 1128.601562 1412.851562 1131.46875 1409.980469 1131.46875 1406.429688 L 1131.46875 1382.46875 C 1131.46875 1378.921875 1128.601562 1376.050781 1125.050781 1376.050781 "/>
<path fill-rule="nonzero" fill="rgb(22.541809%, 22.180176%, 22.56012%)" fill-opacity="1" d="M 1125.050781 1296.191406 C 1121.511719 1296.191406 1118.628906 1299.058594 1118.628906 1302.609375 L 1118.628906 1354.21875 C 1118.628906 1357.769531 1121.511719 1360.640625 1125.050781 1360.640625 C 1128.601562 1360.640625 1131.46875 1357.769531 1131.46875 1354.21875 L 1131.46875 1302.609375 C 1131.46875 1299.058594 1128.601562 1296.191406 1125.050781 1296.191406 "/>
<path fill-rule="nonzero" fill="rgb(22.541809%, 22.180176%, 22.56012%)" fill-opacity="1" d="M 1087.460938 1457.789062 C 1083.910156 1457.789062 1081.039062 1460.660156 1081.039062 1464.210938 L 1081.039062 1503.75 C 1081.039062 1507.300781 1083.910156 1510.171875 1087.460938 1510.171875 C 1091 1510.171875 1093.878906 1507.300781 1093.878906 1503.75 L 1093.878906 1464.210938 C 1093.878906 1460.660156 1091 1457.789062 1087.460938 1457.789062 "/>
<path fill-rule="nonzero" fill="rgb(22.541809%, 22.180176%, 22.56012%)" fill-opacity="1" d="M 1087.460938 1333.25 C 1083.910156 1333.25 1081.039062 1336.128906 1081.039062 1339.671875 L 1081.039062 1429.539062 C 1081.039062 1433.089844 1083.910156 1435.960938 1087.460938 1435.960938 C 1091 1435.960938 1093.878906 1433.089844 1093.878906 1429.539062 L 1093.878906 1339.671875 C 1093.878906 1336.128906 1091 1333.25 1087.460938 1333.25 "/>
<path fill-rule="nonzero" fill="rgb(22.541809%, 22.180176%, 22.56012%)" fill-opacity="1" d="M 1049.859375 1402.578125 C 1046.320312 1402.578125 1043.441406 1405.460938 1043.441406 1409 L 1043.441406 1468.699219 C 1043.441406 1472.25 1046.320312 1475.121094 1049.859375 1475.121094 C 1053.410156 1475.121094 1056.28125 1472.25 1056.28125 1468.699219 L 1056.28125 1409 C 1056.28125 1405.460938 1053.410156 1402.578125 1049.859375 1402.578125 "/>
<path fill-rule="nonzero" fill="rgb(22.541809%, 22.180176%, 22.56012%)" fill-opacity="1" d="M 1049.859375 1296.191406 C 1046.320312 1296.191406 1043.441406 1299.058594 1043.441406 1302.609375 L 1043.441406 1382.46875 C 1043.441406 1386.011719 1046.320312 1388.890625 1049.859375 1388.890625 C 1053.410156 1388.890625 1056.28125 1386.011719 1056.28125 1382.46875 L 1056.28125 1302.609375 C 1056.28125 1299.058594 1053.410156 1296.191406 1049.859375 1296.191406 "/>
<path fill-rule="nonzero" fill="rgb(22.541809%, 22.180176%, 22.56012%)" fill-opacity="1" d="M 1012.269531 1440.128906 C 1008.71875 1440.128906 1005.851562 1443.011719 1005.851562 1446.550781 L 1005.851562 1506.101562 C 1005.851562 1509.648438 1008.71875 1512.519531 1012.269531 1512.519531 C 1015.808594 1512.519531 1018.691406 1509.648438 1018.691406 1506.101562 L 1018.691406 1446.550781 C 1018.691406 1443.011719 1015.808594 1440.128906 1012.269531 1440.128906 "/>
<path fill-rule="nonzero" fill="rgb(22.541809%, 22.180176%, 22.56012%)" fill-opacity="1" d="M 1012.269531 1354.441406 C 1008.71875 1354.441406 1005.851562 1357.308594 1005.851562 1360.859375 L 1005.851562 1387.769531 C 1005.851562 1391.320312 1008.71875 1394.191406 1012.269531 1394.191406 C 1015.808594 1394.191406 1018.691406 1391.320312 1018.691406 1387.769531 L 1018.691406 1360.859375 C 1018.691406 1357.308594 1015.808594 1354.441406 1012.269531 1354.441406 "/>
<path fill-rule="nonzero" fill="rgb(22.541809%, 22.180176%, 22.56012%)" fill-opacity="1" d="M 974.671875 1400.011719 C 971.128906 1400.011719 968.253906 1402.890625 968.253906 1406.429688 L 968.253906 1456.269531 C 968.253906 1459.808594 971.128906 1462.691406 974.671875 1462.691406 C 978.21875 1462.691406 981.09375 1459.808594 981.09375 1456.269531 L 981.09375 1406.429688 C 981.09375 1402.890625 978.21875 1400.011719 974.671875 1400.011719 "/>
<path fill-rule="nonzero" fill="rgb(22.541809%, 22.180176%, 22.56012%)" fill-opacity="1" d="M 974.671875 1296.191406 C 971.128906 1296.191406 968.253906 1299.058594 968.253906 1302.609375 L 968.253906 1377.761719 C 968.253906 1381.308594 971.128906 1384.179688 974.671875 1384.179688 C 978.21875 1384.179688 981.09375 1381.308594 981.09375 1377.761719 L 981.09375 1302.609375 C 981.09375 1299.058594 978.21875 1296.191406 974.671875 1296.191406 "/>
<path fill-rule="nonzero" fill="rgb(22.541809%, 22.180176%, 22.56012%)" fill-opacity="1" d="M 1181.03125 900 L 1134.171875 873.75 L 1130.648438 816.710938 L 1207.921875 880.691406 Z M 999.058594 896.878906 C 997.390625 892.390625 995.242188 886.609375 993.078125 880.839844 C 990.777344 874.691406 988.464844 868.550781 986.695312 863.949219 C 985.796875 861.621094 985.039062 859.679688 984.488281 858.320312 C 984.878906 856.960938 985.40625 855.050781 986.023438 852.769531 C 987.269531 848.171875 988.886719 842.03125 990.488281 835.890625 C 991.914062 830.429688 993.328125 824.980469 994.457031 820.601562 L 1045.539062 858.398438 Z M 1310.839844 902.511719 L 1250.308594 855.871094 C 1248.070312 854.128906 1244.949219 854.078125 1242.648438 855.738281 L 1218.699219 872.941406 L 1127.429688 797.378906 C 1127.230469 797.210938 1127.019531 797.078125 1126.808594 796.949219 C 1126.71875 796.890625 1126.640625 796.820312 1126.550781 796.769531 C 1125.851562 796.359375 1125.089844 796.101562 1124.308594 795.980469 C 1124.199219 795.96875 1124.089844 795.96875 1123.96875 795.960938 C 1123.691406 795.929688 1123.398438 795.910156 1123.109375 795.921875 C 1123.050781 795.921875 1123 795.910156 1122.941406 795.910156 C 1122.851562 795.921875 1122.761719 795.949219 1122.671875 795.960938 C 1122.410156 795.980469 1122.160156 796.019531 1121.910156 796.078125 C 1121.75 796.121094 1121.601562 796.160156 1121.449219 796.199219 C 1121.21875 796.269531 1121 796.359375 1120.789062 796.449219 C 1120.628906 796.519531 1120.480469 796.578125 1120.339844 796.660156 C 1120.140625 796.761719 1119.949219 796.890625 1119.75 797.019531 C 1119.609375 797.121094 1119.46875 797.199219 1119.339844 797.308594 C 1119.308594 797.328125 1119.269531 797.351562 1119.238281 797.378906 L 1055.730469 849.960938 L 994.515625 804.671875 C 994.511719 804.671875 994.503906 804.660156 994.5 804.660156 L 994.4375 804.609375 C 994.132812 804.390625 993.816406 804.199219 993.488281 804.039062 C 993.398438 803.988281 993.300781 803.960938 993.210938 803.921875 C 992.933594 803.800781 992.652344 803.691406 992.367188 803.609375 C 992.3125 803.601562 992.269531 803.570312 992.214844 803.558594 C 992.136719 803.53125 992.054688 803.539062 991.976562 803.519531 C 991.714844 803.460938 991.453125 803.421875 991.191406 803.398438 C 991.046875 803.390625 990.902344 803.371094 990.757812 803.371094 C 990.492188 803.359375 990.230469 803.378906 989.964844 803.410156 C 989.84375 803.421875 989.722656 803.421875 989.605469 803.441406 C 989.242188 803.5 988.882812 803.589844 988.53125 803.710938 C 988.414062 803.75 988.300781 803.808594 988.1875 803.859375 C 987.949219 803.949219 987.714844 804.058594 987.488281 804.179688 C 987.355469 804.261719 987.230469 804.339844 987.101562 804.429688 C 986.980469 804.511719 986.859375 804.570312 986.746094 804.660156 L 890.117188 877.800781 L 861.660156 855.871094 C 859.414062 854.140625 856.300781 854.078125 853.996094 855.738281 L 789.058594 902.378906 C 786.179688 904.449219 785.519531 908.460938 787.589844 911.339844 C 788.84375 913.089844 790.8125 914.019531 792.808594 914.019531 C 794.105469 914.019531 795.414062 913.628906 796.546875 912.808594 L 857.605469 868.949219 L 879.507812 885.828125 L 857.511719 902.480469 C 854.683594 904.621094 854.125 908.648438 856.265625 911.46875 C 857.527344 913.140625 859.449219 914.019531 861.390625 914.019531 C 862.738281 914.019531 864.101562 913.589844 865.257812 912.71875 L 979.792969 826.019531 C 976.304688 839.441406 972.78125 852.800781 971.832031 855.851562 C 971.371094 856.789062 971.136719 857.851562 971.183594 858.949219 C 971.230469 860.109375 971.585938 861.199219 972.175781 862.128906 C 974.085938 866.570312 984.0625 893.308594 990.160156 909.820312 C 990.882812 911.78125 992.507812 913.261719 994.515625 913.800781 C 995.066406 913.949219 995.628906 914.019531 996.183594 914.019531 C 997.660156 914.019531 999.113281 913.511719 1000.28125 912.539062 L 1117.699219 815.320312 L 1121.570312 878.039062 C 1121.710938 880.210938 1122.941406 882.171875 1124.839844 883.238281 L 1178.320312 913.199219 C 1180.488281 914.421875 1183.179688 914.269531 1185.199219 912.808594 L 1246.261719 868.949219 L 1303.011719 912.679688 C 1304.171875 913.578125 1305.550781 914.019531 1306.921875 914.019531 C 1308.839844 914.019531 1310.75 913.160156 1312.011719 911.519531 C 1314.171875 908.710938 1313.648438 904.679688 1310.839844 902.511719 "/>
<path fill-rule="nonzero" fill="rgb(22.541809%, 22.180176%, 22.56012%)" fill-opacity="1" d="M 1361.238281 970.25 L 1166.671875 970.25 C 1169.121094 974.011719 1170.679688 978.390625 1171.078125 983.089844 L 1195.449219 983.089844 L 1195.449219 1052.101562 C 1195.449219 1055.640625 1198.328125 1058.511719 1201.871094 1058.511719 C 1205.410156 1058.511719 1208.289062 1055.640625 1208.289062 1052.101562 L 1208.289062 983.089844 L 1278.390625 983.089844 L 1278.390625 1114.519531 C 1278.390625 1118.058594 1281.269531 1120.941406 1284.808594 1120.941406 C 1288.351562 1120.941406 1291.230469 1118.058594 1291.230469 1114.519531 L 1291.230469 983.089844 L 1361.238281 983.089844 L 1361.238281 1143.410156 L 738.492188 1143.410156 L 738.492188 983.089844 L 788.664062 983.089844 L 788.664062 1050.109375 L 851.640625 1050.109375 L 851.640625 1080.070312 C 851.640625 1083.609375 854.515625 1086.488281 858.058594 1086.488281 C 861.601562 1086.488281 864.480469 1083.609375 864.480469 1080.070312 L 864.480469 1037.269531 L 801.503906 1037.269531 L 801.503906 983.089844 L 928.632812 983.089844 C 928.632812 983.019531 928.648438 982.960938 928.660156 982.890625 C 928.671875 982.699219 928.6875 982.511719 928.710938 982.320312 C 928.789062 981.621094 928.890625 980.960938 929.019531 980.289062 C 929.058594 980.070312 929.097656 979.839844 929.148438 979.628906 C 929.238281 979.25 929.328125 978.859375 929.417969 978.480469 C 929.507812 978.128906 929.609375 977.78125 929.710938 977.449219 C 930.148438 975.960938 930.726562 974.519531 931.394531 973.148438 C 931.652344 972.648438 931.90625 972.160156 932.179688 971.691406 C 932.433594 971.238281 932.703125 970.769531 933 970.339844 C 933.011719 970.308594 933.023438 970.269531 933.050781 970.25 L 738.492188 970.25 L 738.492188 782.339844 C 738.492188 773.429688 743.203125 765.019531 750.804688 760.359375 L 1033.28125 587.378906 C 1037.429688 584.851562 1042.078125 583.578125 1046.738281 583.578125 C 1051.320312 583.578125 1055.890625 584.808594 1059.988281 587.261719 L 1348.71875 760.441406 C 1356.441406 765.070312 1361.238281 773.53125 1361.238281 782.53125 Z M 1361.238281 1296.191406 L 738.492188 1296.191406 L 738.492188 1156.238281 L 1361.238281 1156.238281 Z M 1361.238281 1317.46875 C 1361.238281 1326.46875 1356.441406 1334.929688 1348.71875 1339.570312 L 1059.988281 1512.738281 C 1051.730469 1517.699219 1041.5 1517.640625 1033.28125 1512.621094 L 750.804688 1339.648438 C 743.203125 1334.988281 738.492188 1326.578125 738.492188 1317.671875 L 738.492188 1309.03125 L 855.066406 1309.03125 L 855.066406 1362.949219 C 855.066406 1366.488281 857.941406 1369.371094 861.488281 1369.371094 C 865.03125 1369.371094 867.90625 1366.488281 867.90625 1362.949219 L 867.90625 1309.03125 L 1271.050781 1309.03125 L 1271.050781 1333.769531 L 1208.558594 1333.769531 L 1208.558594 1374.308594 C 1208.558594 1377.859375 1211.441406 1380.730469 1214.980469 1380.730469 C 1218.519531 1380.730469 1221.398438 1377.859375 1221.398438 1374.308594 L 1221.398438 1346.609375 L 1283.878906 1346.609375 L 1283.878906 1309.03125 L 1361.238281 1309.03125 Z M 1355.320312 749.421875 L 1066.601562 576.25 C 1054.21875 568.828125 1038.878906 568.910156 1026.570312 576.441406 L 744.101562 749.421875 C 732.714844 756.378906 725.652344 769 725.652344 782.339844 L 725.652344 1317.671875 C 725.652344 1331.011719 732.714844 1343.628906 744.101562 1350.578125 L 1026.570312 1523.558594 C 1032.78125 1527.359375 1039.75 1529.28125 1046.738281 1529.261719 C 1053.589844 1529.261719 1060.460938 1527.429688 1066.601562 1523.761719 L 1355.320312 1350.578125 C 1366.890625 1343.640625 1374.078125 1330.960938 1374.078125 1317.46875 L 1374.078125 782.53125 C 1374.078125 769.050781 1366.890625 756.371094 1355.320312 749.421875 "/>
<path fill-rule="nonzero" fill="rgb(22.541809%, 22.180176%, 22.56012%)" fill-opacity="1" d="M 1201.871094 1075.679688 C 1198.328125 1075.679688 1195.449219 1078.550781 1195.449219 1082.101562 L 1195.449219 1108.5 C 1195.449219 1112.039062 1198.328125 1114.921875 1201.871094 1114.921875 C 1205.421875 1114.921875 1208.289062 1112.039062 1208.289062 1108.5 L 1208.289062 1082.101562 C 1208.289062 1078.550781 1205.421875 1075.679688 1201.871094 1075.679688 "/>
<path fill-rule="nonzero" fill="rgb(22.541809%, 22.180176%, 22.56012%)" fill-opacity="1" d="M 858.058594 1099.75 C 854.515625 1099.75 851.640625 1102.628906 851.640625 1106.171875 L 851.640625 1127.078125 C 851.640625 1130.621094 854.515625 1133.5 858.058594 1133.5 C 861.605469 1133.5 864.480469 1130.621094 864.480469 1127.078125 L 864.480469 1106.171875 C 864.480469 1102.628906 861.605469 1099.75 858.058594 1099.75 "/>
<path fill-rule="nonzero" fill="rgb(22.541809%, 22.180176%, 22.56012%)" fill-opacity="1" d="M 861.910156 781.351562 L 858.058594 781.351562 L 858.058594 777.5 C 858.058594 773.949219 855.183594 771.078125 851.640625 771.078125 C 848.09375 771.078125 845.21875 773.949219 845.21875 777.5 L 845.21875 781.351562 L 841.367188 781.351562 C 837.824219 781.351562 834.949219 784.21875 834.949219 787.769531 C 834.949219 791.308594 837.824219 794.191406 841.367188 794.191406 L 845.21875 794.191406 L 845.21875 798.039062 C 845.21875 801.578125 848.09375 804.460938 851.640625 804.460938 C 855.183594 804.460938 858.058594 801.578125 858.058594 798.039062 L 858.058594 794.191406 L 861.910156 794.191406 C 865.457031 794.191406 868.328125 791.308594 868.328125 787.769531 C 868.328125 784.21875 865.457031 781.351562 861.910156 781.351562 "/>
<path fill-rule="nonzero" fill="rgb(22.541809%, 22.180176%, 22.56012%)" fill-opacity="1" d="M 987.730469 742.828125 L 983.878906 742.828125 L 983.878906 738.980469 C 983.878906 735.441406 981.003906 732.558594 977.460938 732.558594 C 973.914062 732.558594 971.039062 735.441406 971.039062 738.980469 L 971.039062 742.828125 L 967.1875 742.828125 C 963.644531 742.828125 960.769531 745.710938 960.769531 749.25 C 960.769531 752.800781 963.644531 755.671875 967.1875 755.671875 L 971.039062 755.671875 L 971.039062 759.519531 C 971.039062 763.070312 973.914062 765.941406 977.460938 765.941406 C 981.003906 765.941406 983.878906 763.070312 983.878906 759.519531 L 983.878906 755.671875 L 987.730469 755.671875 C 991.277344 755.671875 994.152344 752.800781 994.152344 749.25 C 994.152344 745.710938 991.277344 742.828125 987.730469 742.828125 "/>
<path fill-rule="nonzero" fill="rgb(22.541809%, 22.180176%, 22.56012%)" fill-opacity="1" d="M 1053.210938 669.648438 L 1049.359375 669.648438 L 1049.359375 665.800781 C 1049.359375 662.261719 1046.480469 659.378906 1042.941406 659.378906 C 1039.390625 659.378906 1036.519531 662.261719 1036.519531 665.800781 L 1036.519531 669.648438 L 1032.671875 669.648438 C 1029.121094 669.648438 1026.25 672.53125 1026.25 676.070312 C 1026.25 679.621094 1029.121094 682.488281 1032.671875 682.488281 L 1036.519531 682.488281 L 1036.519531 686.339844 C 1036.519531 689.890625 1039.390625 692.761719 1042.941406 692.761719 C 1046.480469 692.761719 1049.359375 689.890625 1049.359375 686.339844 L 1049.359375 682.488281 L 1053.210938 682.488281 C 1056.75 682.488281 1059.628906 679.621094 1059.628906 676.070312 C 1059.628906 672.53125 1056.75 669.648438 1053.210938 669.648438 "/>
<path fill-rule="nonzero" fill="rgb(22.541809%, 22.180176%, 22.56012%)" fill-opacity="1" d="M 1164.910156 714.589844 C 1168.449219 714.589844 1171.328125 711.710938 1171.328125 708.171875 C 1171.328125 704.621094 1168.449219 701.75 1164.910156 701.75 L 1161.058594 701.75 L 1161.058594 697.898438 C 1161.058594 694.351562 1158.179688 691.480469 1154.640625 691.480469 C 1151.089844 691.480469 1148.21875 694.351562 1148.21875 697.898438 L 1148.21875 701.75 L 1144.371094 701.75 C 1140.820312 701.75 1137.949219 704.621094 1137.949219 708.171875 C 1137.949219 711.710938 1140.820312 714.589844 1144.371094 714.589844 L 1148.21875 714.589844 L 1148.21875 718.441406 C 1148.21875 721.980469 1151.089844 724.859375 1154.640625 724.859375 C 1158.179688 724.859375 1161.058594 721.980469 1161.058594 718.441406 L 1161.058594 714.589844 L 1164.910156 714.589844 "/>
<path fill-rule="nonzero" fill="rgb(22.541809%, 22.180176%, 22.56012%)" fill-opacity="1" d="M 1256.058594 780.070312 L 1259.921875 780.070312 L 1259.921875 783.921875 C 1259.921875 787.460938 1262.789062 790.339844 1266.328125 790.339844 C 1269.878906 790.339844 1272.75 787.460938 1272.75 783.921875 L 1272.75 780.070312 L 1276.609375 780.070312 C 1280.148438 780.070312 1283.019531 777.191406 1283.019531 773.648438 C 1283.019531 770.101562 1280.148438 767.230469 1276.609375 767.230469 L 1272.75 767.230469 L 1272.75 763.371094 C 1272.75 759.828125 1269.878906 756.960938 1266.328125 756.960938 C 1262.789062 756.960938 1259.921875 759.828125 1259.921875 763.371094 L 1259.921875 767.230469 L 1256.058594 767.230469 C 1252.519531 767.230469 1249.640625 770.101562 1249.640625 773.648438 C 1249.640625 777.191406 1252.519531 780.070312 1256.058594 780.070312 "/>
<path fill-rule="nonzero" fill="rgb(22.541809%, 22.180176%, 22.56012%)" fill-opacity="1" d="M 920.96875 701.75 C 915.296875 701.75 910.699219 706.351562 910.699219 712.019531 C 910.699219 717.691406 915.296875 722.289062 920.96875 722.289062 C 926.640625 722.289062 931.238281 717.691406 931.238281 712.019531 C 931.238281 706.351562 926.640625 701.75 920.96875 701.75 "/>
<path fill-rule="nonzero" fill="rgb(22.541809%, 22.180176%, 22.56012%)" fill-opacity="1" d="M 1077.601562 736.410156 C 1071.929688 736.410156 1067.328125 741.011719 1067.328125 746.679688 C 1067.328125 752.359375 1071.929688 756.960938 1077.601562 756.960938 C 1083.28125 756.960938 1087.871094 752.359375 1087.871094 746.679688 C 1087.871094 741.011719 1083.28125 736.410156 1077.601562 736.410156 "/>
<path fill-rule="nonzero" fill="rgb(22.541809%, 22.180176%, 22.56012%)" fill-opacity="1" d="M 1194.441406 794.191406 C 1200.109375 794.191406 1204.710938 789.589844 1204.710938 783.921875 C 1204.710938 778.238281 1200.109375 773.648438 1194.441406 773.648438 C 1188.761719 773.648438 1184.171875 778.238281 1184.171875 783.921875 C 1184.171875 789.589844 1188.761719 794.191406 1194.441406 794.191406 "/>
</svg>
